# xmcd
#
# Track frame offsets:
#	300
#	22047
#	54631
#	88383
#	117176
#	150051
#	174322
#	206531
#	231403
#	259127
#	289060
#	317712
#
# Disc length: 4632 seconds
#
# Revision: 0
# Processed by: cddbd v1.5.2PL0 Copyright (c) Steve Scherf et al.
# Submitted via: audiograbber 1.83.01
#
DISCID=a412140c
DTITLE=Cdpool - Dance March 10 CD2
DYEAR=2010
DGENRE=Dance
TTITLE0=Inna - Hot (Cahill Club Mix)
TTITLE1=Steve Aoki Ft [[[Zuper Blahq]]] - I'm In The House (Warren Clarke Remix
TTITLE1=)
TTITLE2=Bananarama - Love Don't Live Here (Ian Masterson Extended Mix)
TTITLE3=Magic Johnson Ft Eleze - This Is Your Life (7th Heaven Club Mix)
TTITLE4=Natalie Williams - Keep Me Holding On (E-Squire Club Mix)
TTITLE5=Selena Gomez and The Scene - Naturally (Disco Fries Extended Mix)
TTITLE6=Nastala - Crazy (Digital Dog Remix)
TTITLE7=McLean - My Name (Ian Carey Remix)
TTITLE8=Rox - My Baby Left Me (Wideboys Full Club Mix)
TTITLE9=Samuele Sartini Ft Amanda Wilson - Love U Seek (Bassmonkeys Club Mix)
TTITLE10=8-Bit Heart - Make A Move (Future Freakz Remix)
TTITLE11=The Full Time Superstars and Malito - Soul Searchin' (Club Mix)
EXTD=
EXTT0=
EXTT1=
EXTT2=
EXTT3=
EXTT4=
EXTT5=
EXTT6=
EXTT7=
EXTT8=
EXTT9=
EXTT10=
EXTT11=
PLAYORDER=
